# xmcd CD database file
#
# Track frame offsets:
#	150
#	25265
#	48488
#	74714
#	105754
#	130873
#	155791
#	172950
#	203504
#
# Disc length: 3134 seconds
#
# Revision: 1
# Processed by: cddbd v1.5.2PL0 Copyright (c) Steve Scherf et al.
# Submitted via: CDex 1.51
#
DISCID=740c3c09
DTITLE=D¿em - Autsajder
DYEAR=1993
DGENRE=Blues
TTITLE0=A jednak czegos zal
TTITLE1=Prokurator i ja
TTITLE2=Noc i rytm
TTITLE3=Autsajder
TTITLE4=Wieczny pechowiec
TTITLE5=Plyn moj bluesie plyn
TTITLE6=Piosenka ekologiczna
TTITLE7=Cala w trawie
TTITLE8=Obluda
EXTD=YEAR: 1993
EXTT0=
EXTT1=
EXTT2=
EXTT3=
EXTT4=
EXTT5=
EXTT6=
EXTT7=
EXTT8=
PLAYORDER=
